<svg id="Livello_1" data-name="Livello 1" xmlns="http://www.w3.org/2000/svg" viewBox="0 0 1920 3235.82"><defs><style>.cls-1{fill:#fefefe;}.cls-2{fill:#1371be;}.cls-3{fill:#36a9e1;}.cls-4{fill:#fefefe;}</style></defs><path class="cls-1" d="M1920,0V268.61C1278.05,289,642.19,664.05,0,689.88V0Z"/><path class="cls-2" d="M1920,268.61V2164.15c-114.78-27.93-225.58-74.31-334-122.24-145.67-64.39-290.66-132.78-420.8-224.56l-1.91-1.35c-118.12-83.61-222.26-185.43-338.07-272.22C586.06,1364.6,297.09,1253.47,0,1223V689.88C642.19,664.05,1278.05,289,1920,268.61Z"/><path class="cls-3" d="M1165.15,1817.35c-152.13,80.18-281.62,208.63-397.41,339C609,2335.16,457.19,2529.66,247.28,2644.16,169.16,2686.76,86,2716.63,0,2738.24V1223c297.09,30.52,586.06,141.65,825.17,320.83C941,1630.57,1045.12,1732.39,1163.24,1816Z"/><path class="cls-4" d="M1920,2164.15V3235.82H0V2738.24c86-21.61,169.16-51.48,247.28-94.08,209.91-114.5,361.68-309,520.46-487.79,115.79-130.39,245.28-258.84,397.41-339,130.14,91.78,275.13,160.17,420.8,224.56C1694.42,2089.84,1805.22,2136.22,1920,2164.15Z"/></svg>