<svg id="Livello_1" data-name="Livello 1" xmlns="http://www.w3.org/2000/svg" viewBox="0 0 118.62 62.29"><defs><style>.cls-1{fill:#a86436;}.cls-1,.cls-2{stroke:#1d1d1b;stroke-miterlimit:10;}.cls-2{fill:#fff;}</style></defs><path class="cls-1" d="M646.27,320.18a71.55,71.55,0,0,1-117.4,0,71.54,71.54,0,0,1,46.64-29.63V301.8a2.36,2.36,0,0,0,4.71,0V289.91c1.65-.18,3.32-.29,5-.34V306.8a2.35,2.35,0,1,0,4.7,0V289.57c1.68.05,3.35.16,5,.34V301.8a2.36,2.36,0,0,0,4.71,0V290.55A71.57,71.57,0,0,1,646.27,320.18Z" transform="translate(-528.26 -289.03)"/><path class="cls-2" d="M580.22,289.91V301.8a2.36,2.36,0,0,1-4.71,0V290.55C577.06,290.28,578.63,290.06,580.22,289.91Z" transform="translate(-528.26 -289.03)"/><path class="cls-2" d="M589.92,289.57V306.8a2.35,2.35,0,1,1-4.7,0V289.57c.78,0,1.56,0,2.35,0S589.14,289.54,589.92,289.57Z" transform="translate(-528.26 -289.03)"/><path class="cls-2" d="M599.63,290.55V301.8a2.36,2.36,0,0,1-4.71,0V289.91C596.51,290.07,598.08,290.28,599.63,290.55Z" transform="translate(-528.26 -289.03)"/></svg>