<svg id="Livello_1" data-name="Livello 1" xmlns="http://www.w3.org/2000/svg" viewBox="0 0 328.64 603.37"><defs><style>.cls-1{fill:#e30613;}.cls-1,.cls-2,.cls-3,.cls-4{stroke:#1d1d1b;stroke-miterlimit:10;}.cls-2{fill:#ca9e67;}.cls-3,.cls-5{fill:#fff;}.cls-4{fill:#dedc00;}</style></defs><path class="cls-1" d="M562.34,392.16l-13.86,5.41a57.56,57.56,0,0,0-7.1-5.41Z" transform="translate(-451.1 -249.66)"/><path class="cls-2" d="M744.47,494.41v69.11a23.46,23.46,0,0,1-46.92,0V494.4a57.76,57.76,0,0,0,18,4.67c1.79.17,3.61.26,5.45.26A58,58,0,0,0,744.47,494.41Z" transform="translate(-451.1 -249.66)"/><path class="cls-1" d="M697.55,494.4v29.86A101.09,101.09,0,0,1,673.65,541v47.58H557.19V541c-19.44-9.89-34.37-24.59-41.91-41.89a58.22,58.22,0,0,0,52.77-58c0-.26,0-.53,0-.79l63.39-24.75a23.43,23.43,0,0,0,14.88-23.4h43.15a58.3,58.3,0,0,0-14.94,13.89c-.3.38-.59.78-.87,1.18a.83.83,0,0,0-.08.12,58.23,58.23,0,0,0,24,87Z" transform="translate(-451.1 -249.66)"/><path class="cls-2" d="M611.73,372.88l-31.92,12.46,2.87-22.42A57.88,57.88,0,0,0,611.73,372.88Z" transform="translate(-451.1 -249.66)"/><path class="cls-2" d="M650.55,392.16h-4.24a23.42,23.42,0,0,0-16.65-20.92,57.73,57.73,0,0,0,17.61-7.72Z" transform="translate(-451.1 -249.66)"/><path class="cls-1" d="M559.27,739l-30.72,73.89-20.07-15.11A9.81,9.81,0,0,0,494,800.89l30.43-73.18A29.12,29.12,0,0,0,559.27,739Z" transform="translate(-451.1 -249.66)"/><path class="cls-1" d="M679.09,739.94v87.15l-24.28-6.24a9.81,9.81,0,0,0-12.25,9.5V740.77a29.12,29.12,0,0,0,36.53-.83Z" transform="translate(-451.1 -249.66)"/><path class="cls-3" d="M679.09,739.94a29.12,29.12,0,0,1-47.34-16.59l-15.19-76.61c-.38,0-.76,0-1.14,0a58,58,0,0,1-7.84-.53L575.67,723a29,29,0,0,1-16.4,16h0a29.12,29.12,0,0,1-37.37-38.34L560.43,608l.05-.1h0a58,58,0,0,1-3.29-19.32H673.65a58.07,58.07,0,0,1-4.76,23.09c.18.64.33,1.3.46,2L688.87,712A29.08,29.08,0,0,1,679.09,739.94Z" transform="translate(-451.1 -249.66)"/><path class="cls-4" d="M710.32,842.72a9.81,9.81,0,0,1-9.8,9.81H652.37a9.81,9.81,0,0,1-9.81-9.81V830.35a9.81,9.81,0,0,1,12.25-9.5l24.28,6.24L703,833.22a9.82,9.82,0,0,1,7.36,9.5Z" transform="translate(-451.1 -249.66)"/><path class="cls-4" d="M552.1,835.5a9.93,9.93,0,0,1-.75,3.76,9.81,9.81,0,0,1-12.82,5.29l-44.47-18.49a9.81,9.81,0,0,1-5.29-12.82l4.75-11.42a8,8,0,0,1,.45-.93,9.81,9.81,0,0,1,14.51-3.14l20.07,15.11,19.64,14.8A9.82,9.82,0,0,1,552.1,835.5Z" transform="translate(-451.1 -249.66)"/><path class="cls-1" d="M633.8,307.05h46a65,65,0,1,0-122.33,38h34.15a19.05,19.05,0,0,0,34.6,0h4V310.67" transform="translate(-451.1 -249.66)"/><path class="cls-2" d="M652.31,359.82a58.09,58.09,0,0,1-22.65,11.42,23.24,23.24,0,0,0-6.76-1,23.49,23.49,0,0,0-8.53,1.61l-2.64,1A58.25,58.25,0,0,1,565.67,345h25.91a19.05,19.05,0,0,0,34.6,0h4V356.2a3.62,3.62,0,0,0,3.62,3.62Z" transform="translate(-451.1 -249.66)"/><path class="cls-5" d="M600.78,418.59V527.82H583.5V439.75a54.62,54.62,0,0,1-10.1,5.7,83.41,83.41,0,0,1-12.33,4.14V434.83c2.88-.94,5.66-1.94,8.34-3s5.33-2.21,7.94-3.5,5.24-2.73,7.9-4.32,5.4-3.4,8.23-5.44Z" transform="translate(-451.1 -249.66)"/><path class="cls-5" d="M605.78,525.37V508.75q10.5,7.08,21.31,7.08t17.51-5.55q6.63-5.55,6.63-14.79t-6.74-14.16q-6.75-5.07-19.34-5.07-4.32,0-17.51.9l3.8-56.19h52.61v14.76H625.82L624,462.48q5.15-.3,9.32-.3,17,0,26.26,8.72t9.28,23.84q0,15.87-10.62,25.45t-29.17,9.57Q613.45,529.76,605.78,525.37Z" transform="translate(-451.1 -249.66)"/><path class="cls-1" d="M568.05,441.1a58.22,58.22,0,0,1-52.77,58c-1.79.17-3.61.26-5.45.26a58.23,58.23,0,1,1,31.55-107.17,57.56,57.56,0,0,1,7.1,5.41l-43.81,17.1a23.47,23.47,0,1,0,17.06,43.72L568,440.31C568.05,440.57,568.05,440.84,568.05,441.1Z" transform="translate(-451.1 -249.66)"/><path class="cls-2" d="M680.26,315.26a64.66,64.66,0,0,1-3.71,21.61H640a3.8,3.8,0,0,1-3.81-3.81V319a3.8,3.8,0,0,1,3.79-3.8h0l31.28.05Z" transform="translate(-451.1 -249.66)"/><path class="cls-3" d="M683.29,336.87H640a3.8,3.8,0,0,1-3.81-3.81V319a3.8,3.8,0,0,1,3.79-3.8h0l31.28.05h9v-.06a66.42,66.42,0,0,0-.5-8.15h-46a3.62,3.62,0,0,0-3.62,3.62V356.2a3.62,3.62,0,0,0,3.62,3.62h49.49a5,5,0,0,0,5-5V341.87A5,5,0,0,0,683.29,336.87Zm-1,13.24a1.56,1.56,0,0,1-1.56,1.56H637.88A1.68,1.68,0,0,1,636.2,350v-3.28a1.68,1.68,0,0,1,1.68-1.68h42.83a1.56,1.56,0,0,1,1.56,1.56Z" transform="translate(-451.1 -249.66)"/><path class="cls-2" d="M668.65,345a57.93,57.93,0,0,1-4.3,6.64H637.88A1.68,1.68,0,0,1,636.2,350v-3.28a1.68,1.68,0,0,1,1.68-1.68Z" transform="translate(-451.1 -249.66)"/><circle class="cls-3" cx="157.89" cy="83.77" r="2.74"/><path class="cls-2" d="M631.43,415.56,568,440.31l-46.31,18.08a23.47,23.47,0,1,1-17.06-43.72l43.81-17.1,13.86-5.41,17.47-6.82,31.92-12.46,2.64-1a23.49,23.49,0,0,1,8.53-1.61,23.5,23.5,0,0,1,21.86,14.93,23.48,23.48,0,0,1-13.33,30.39Z" transform="translate(-451.1 -249.66)"/><path class="cls-1" d="M779.24,441.1A58.19,58.19,0,0,1,721,499.33c-1.84,0-3.66-.09-5.45-.26a58.21,58.21,0,0,1-42-91.72.83.83,0,0,1,.08-.12c.28-.4.57-.8.87-1.18A58.23,58.23,0,0,1,779.24,441.1Z" transform="translate(-451.1 -249.66)"/></svg>