<svg id="Livello_1" data-name="Livello 1" xmlns="http://www.w3.org/2000/svg" viewBox="0 0 1080 1920"><defs><style>.cls-1{fill:none;}.cls-2{fill:#fefefe;}.cls-3{fill:#1371be;}.cls-4{fill:#36a9e1;}</style></defs><path class="cls-1" d="M1181,1637.71"/><path class="cls-2" d="M1080,0V1102.91L575.78,775c-41-26.65-82-53.34-120.44-83.55-12.33-9.7-25.73-24-20.63-38.82,3-8.84,11.8-14.24,20.11-18.52a315,315,0,0,1,91.59-30.52c14.27-2.42,29.73-4.3,40.36-14.13,14.65-13.56,14.13-38,4.25-55.31s-26.86-29.27-43.32-40.56Q280.46,310.36,0,147.51V0Z"/><path class="cls-3" d="M1080,1102.91v361.62c-262.71-40.47-535-18.59-787.61,64.23A1688.07,1688.07,0,0,0,0,1656.54v-1509q280.22,162.69,547.7,346c16.46,11.29,33.44,23.22,43.32,40.56s10.4,41.75-4.25,55.31c-10.63,9.83-26.09,11.71-40.36,14.13a315,315,0,0,0-91.59,30.52c-8.31,4.28-17.07,9.68-20.11,18.52-5.1,14.83,8.3,29.12,20.63,38.82,38.43,30.21,79.47,56.9,120.44,83.55Z"/><path class="cls-4" d="M1080,1464.53V1920H0V1656.54a1688.07,1688.07,0,0,1,292.39-127.78C545,1445.94,817.29,1424.06,1080,1464.53Z"/></svg>