<svg id="Livello_1" data-name="Livello 1" xmlns="http://www.w3.org/2000/svg" viewBox="0 0 2624.33 145.06"><defs><style>.cls-1{fill:#575756;}.cls-2{fill:#ededed;}.cls-3{fill:#36a9e1;}.cls-4{fill:#004b97;}.cls-5{fill:#1371be;}</style></defs><path class="cls-1" d="M482.87,86.82a15.67,15.67,0,0,1-15.68,15.68H365.67a15.68,15.68,0,1,1,0-31.36H467.19A15.68,15.68,0,0,1,482.87,86.82Z" transform="translate(-76.03 -54.91)"/><path class="cls-1" d="M658.89,86.82a15.67,15.67,0,0,1-15.68,15.68H541.68a15.68,15.68,0,1,1,0-31.36H643.21A15.68,15.68,0,0,1,658.89,86.82Z" transform="translate(-76.03 -54.91)"/><path class="cls-1" d="M689.4,175.92V200H91.24c-26.58,0-7.41-22.22-.91-24.05Z" transform="translate(-76.03 -54.91)"/><path class="cls-2" d="M200.52,130a30.38,30.38,0,0,1,20.53-8H689.4V54.91H205.66c-1.3.72-4.92,4.07-9.43,8.58h40.12a8.13,8.13,0,0,1,8.13,8.13v14.3a8.13,8.13,0,0,1-8.13,8.14H169.1c-.36.55-.65,1-.87,1.46a168.33,168.33,0,0,0-58.77,22.57A56.17,56.17,0,0,1,112,135c0,19.3-9.4,35.62-22.32,40.93H689.4v-8.58H176.1a6.33,6.33,0,0,1-4.28-11ZM530.59,75.73a15.63,15.63,0,0,1,11.09-4.59H643.21a15.68,15.68,0,1,1,0,31.36H541.68a15.68,15.68,0,0,1-11.09-26.77Zm-176,0a15.63,15.63,0,0,1,11.09-4.59H467.19a15.68,15.68,0,1,1,0,31.36H365.67a15.68,15.68,0,0,1-11.09-26.77Z" transform="translate(-76.03 -54.91)"/><path class="cls-3" d="M244.48,71.62v14.3a8.13,8.13,0,0,1-8.13,8.14H169.1c4.14-6.36,17.62-21.06,27.13-30.57h40.12A8.13,8.13,0,0,1,244.48,71.62Z" transform="translate(-76.03 -54.91)"/><path class="cls-4" d="M112,135c0,19.3-9.4,35.62-22.32,40.93h-1A12.67,12.67,0,0,1,76,163.25c0-17.25,14.27-33,33.43-45.16A56.17,56.17,0,0,1,112,135Z" transform="translate(-76.03 -54.91)"/><path class="cls-5" d="M689.4,122v45.34H176.1a6.33,6.33,0,0,1-4.28-11L200.52,130a30.38,30.38,0,0,1,20.53-8Z" transform="translate(-76.03 -54.91)"/><path class="cls-3" d="M658.89,86.82a15.67,15.67,0,0,1-15.68,15.68H541.68a15.68,15.68,0,1,1,0-31.36H643.21A15.68,15.68,0,0,1,658.89,86.82Z" transform="translate(-76.03 -54.91)"/><path class="cls-3" d="M482.87,86.82a15.67,15.67,0,0,1-15.68,15.68H365.67a15.68,15.68,0,1,1,0-31.36H467.19A15.68,15.68,0,0,1,482.87,86.82Z" transform="translate(-76.03 -54.91)"/><rect class="cls-2" x="627.37" width="488.74" height="121.02"/><rect class="cls-5" x="627.37" y="67.09" width="488.74" height="45.34"/><rect class="cls-3" x="910.49" y="16.23" width="153.31" height="31.36" rx="15.68"/><rect class="cls-3" x="681.43" y="16.23" width="153.31" height="31.36" rx="15.68"/><rect class="cls-1" x="627.37" y="121.02" width="488.74" height="24.04"/><rect class="cls-2" x="1130.11" width="488.74" height="121.02"/><rect class="cls-5" x="1130.11" y="67.09" width="488.74" height="45.34"/><rect class="cls-3" x="1413.23" y="16.23" width="153.31" height="31.36" rx="15.68"/><rect class="cls-3" x="1184.17" y="16.23" width="153.31" height="31.36" rx="15.68"/><rect class="cls-1" x="1130.11" y="121.02" width="488.74" height="24.04"/><rect class="cls-2" x="1632.85" width="488.74" height="121.02"/><rect class="cls-5" x="1632.85" y="67.09" width="488.74" height="45.34"/><rect class="cls-3" x="1915.97" y="16.23" width="153.31" height="31.36" rx="15.68"/><rect class="cls-3" x="1686.91" y="16.23" width="153.31" height="31.36" rx="15.68"/><rect class="cls-1" x="1632.85" y="121.02" width="488.74" height="24.04"/><rect class="cls-2" x="2135.59" width="488.74" height="121.02"/><rect class="cls-5" x="2135.59" y="67.09" width="488.74" height="45.34"/><rect class="cls-3" x="2418.71" y="16.23" width="153.31" height="31.36" rx="15.68"/><rect class="cls-3" x="2189.65" y="16.23" width="153.31" height="31.36" rx="15.68"/><rect class="cls-1" x="2135.59" y="121.02" width="488.74" height="24.04"/></svg>